<svg xmlns="http://www.w3.org/2000/svg" xmlns:xlink="http://www.w3.org/1999/xlink" width="129.228" height="90.76" viewBox="0 0 129.228 90.76">
  <defs>
    <clipPath id="clip-path">
      <rect id="Rectangle_1382" data-name="Rectangle 1382" width="129.228" height="90.76" fill="none"/>
    </clipPath>
  </defs>
  <g id="Group_41916" data-name="Group 41916" transform="translate(327.43 -4224.449)">
    <g id="Group_94" data-name="Group 94" transform="translate(-327.43 4224.449)" clip-path="url(#clip-path)">
      <path id="Path_91" data-name="Path 91" d="M509.079,24.04a4.045,4.045,0,0,0-5.716,0L491.938,35.47a4.04,4.04,0,0,1-5.714-5.713L497.65,18.324a4.039,4.039,0,1,0-5.712-5.713L480.507,24.04a4.042,4.042,0,0,1-5.717-5.715l11.434-11.43a4.039,4.039,0,1,0-5.717-5.708L469.074,12.612A12.122,12.122,0,0,0,466.719,26.4a12.283,12.283,0,0,0,2.355,3.359,11.868,11.868,0,0,0,3.37,2.355,12.149,12.149,0,0,0,4.546,1.163,12.191,12.191,0,0,0,3.516,7.911,12.448,12.448,0,0,0,3.358,2.359,12.119,12.119,0,0,0,13.786-2.359l11.428-11.429a4.052,4.052,0,0,0,0-5.717" transform="translate(-400.531 0)" fill="#bd2846"/>
      <path id="Path_92" data-name="Path 92" d="M606.358,126.554a4.041,4.041,0,0,0,5.714,0l11.425-11.43a4.042,4.042,0,0,1,5.715,5.717L617.784,132.27a4.039,4.039,0,0,0,5.713,5.711l11.429-11.427a4.041,4.041,0,0,1,5.713,5.716L629.213,143.7a4.039,4.039,0,1,0,5.713,5.712l11.427-11.429a12.108,12.108,0,0,0,2.356-13.783,11.792,11.792,0,0,0-2.356-3.358,12.22,12.22,0,0,0-7.908-3.518,12.118,12.118,0,0,0-20.661-7.914L606.358,120.84a4.027,4.027,0,0,0,0,5.713" transform="translate(-520.665 -91.084)" fill="#f9a01b"/>
      <path id="Path_93" data-name="Path 93" d="M9.633,343.921H.64V326.955H9.248v1.8H2.631V334.4H8.758v1.787H2.631v5.943h7Z" transform="translate(-0.55 -281.3)" fill="#fff"/>
      <path id="Path_94" data-name="Path 94" d="M83.078,337.988H81.133V335.93h-.045a4.483,4.483,0,0,1-4.166,2.341,4.537,4.537,0,0,1-3.65-1.621,6.713,6.713,0,0,1-1.366-4.432A7.269,7.269,0,0,1,73.42,327.4a5.01,5.01,0,0,1,4.039-1.812,3.881,3.881,0,0,1,3.629,1.97h.045v-7.5h1.945Zm-1.945-5.476v-1.787a3.479,3.479,0,0,0-.967-2.487A3.259,3.259,0,0,0,77.7,327.22a3.366,3.366,0,0,0-2.795,1.3,5.661,5.661,0,0,0-1.019,3.594,5.11,5.11,0,0,0,.982,3.305,3.2,3.2,0,0,0,2.624,1.219,3.325,3.325,0,0,0,2.624-1.177,4.337,4.337,0,0,0,1.012-2.954" transform="translate(-61.864 -275.367)" fill="#fff"/>
      <path id="Path_95" data-name="Path 95" d="M179.556,373.81h-1.942V371.9h-.054a3.972,3.972,0,0,1-3.738,2.2q-4.323,0-4.323-5.157V361.7h1.927v6.934c0,2.551.972,3.836,2.942,3.836a2.953,2.953,0,0,0,2.325-1.052,4.015,4.015,0,0,0,.921-2.737V361.7h1.942Z" transform="translate(-145.831 -311.189)" fill="#fff"/>
      <path id="Path_96" data-name="Path 96" d="M264.022,371.5a6.328,6.328,0,0,1-3.311.839,5.486,5.486,0,0,1-4.18-1.684,6.1,6.1,0,0,1-1.593-4.369,6.716,6.716,0,0,1,1.716-4.811,6.009,6.009,0,0,1,4.575-1.818,6.4,6.4,0,0,1,2.82.59v1.993a4.927,4.927,0,0,0-2.893-.952,3.9,3.9,0,0,0-3.041,1.333,5.01,5.01,0,0,0-1.2,3.5,4.845,4.845,0,0,0,1.121,3.361,3.877,3.877,0,0,0,3,1.229,4.84,4.84,0,0,0,2.982-1.059Z" transform="translate(-219.338 -309.44)" fill="#fff"/>
      <path id="Path_97" data-name="Path 97" d="M335.467,372.061h-1.94v-1.894h-.046a4.067,4.067,0,0,1-3.728,2.177,4.023,4.023,0,0,1-2.837-.953,3.351,3.351,0,0,1-1.016-2.555c0-2.251,1.327-3.572,3.994-3.944l3.633-.508q0-3.091-2.5-3.091a5.961,5.961,0,0,0-3.95,1.5V360.8a7.449,7.449,0,0,1,4.114-1.137q4.272,0,4.272,4.518Zm-1.94-6.132-2.918.4a4.952,4.952,0,0,0-2.041.669,1.943,1.943,0,0,0-.684,1.7,1.831,1.831,0,0,0,.641,1.447,2.378,2.378,0,0,0,1.678.568,3.108,3.108,0,0,0,2.381-1.014,3.6,3.6,0,0,0,.942-2.563Z" transform="translate(-280.391 -309.44)" fill="#fff"/>
      <path id="Path_98" data-name="Path 98" d="M408.573,351.586a3.771,3.771,0,0,1-1.81.371c-2.12,0-3.177-1.177-3.177-3.548v-7.164H401.5v-1.657h2.087v-2.963l1.931-.625v3.588h3.056v1.657h-3.056v6.824a2.873,2.873,0,0,0,.417,1.739,1.658,1.658,0,0,0,1.382.521,2.007,2.007,0,0,0,1.258-.4Z" transform="translate(-345.435 -289.082)" fill="#fff"/>
      <path id="Path_99" data-name="Path 99" d="M461.437,324.162a1.231,1.231,0,0,1-.888-.353,1.193,1.193,0,0,1-.365-.9,1.24,1.24,0,0,1,.365-.91,1.252,1.252,0,0,1,.888-.354,1.3,1.3,0,0,1,.911.354,1.273,1.273,0,0,1,.367.91,1.24,1.24,0,0,1-.367.885,1.258,1.258,0,0,1-.911.367m.947,15.191h-1.941V327.238h1.941Z" transform="translate(-395.925 -276.732)" fill="#fff"/>
      <path id="Path_100" data-name="Path 100" d="M495.358,372.344a5.637,5.637,0,0,1-4.292-1.694,6.333,6.333,0,0,1-1.6-4.5,6.568,6.568,0,0,1,1.665-4.768,6,6,0,0,1,4.509-1.715,5.45,5.45,0,0,1,4.233,1.67,6.632,6.632,0,0,1,1.515,4.626,6.511,6.511,0,0,1-1.637,4.636,5.735,5.735,0,0,1-4.393,1.75m.138-11.051a3.693,3.693,0,0,0-2.958,1.276,5.225,5.225,0,0,0-1.086,3.51,4.922,4.922,0,0,0,1.107,3.393,3.7,3.7,0,0,0,2.936,1.243,3.536,3.536,0,0,0,2.892-1.221,5.274,5.274,0,0,0,1.015-3.469,5.377,5.377,0,0,0-1.015-3.5,3.535,3.535,0,0,0-2.892-1.231" transform="translate(-421.118 -309.44)" fill="#fff"/>
      <path id="Path_101" data-name="Path 101" d="M598.454,372.06H596.52v-6.907q0-3.858-2.816-3.861a3.053,3.053,0,0,0-2.4,1.094,4.063,4.063,0,0,0-.957,2.767v6.907H588.41V359.945h1.933v2.01h.044a4.385,4.385,0,0,1,3.973-2.294,3.719,3.719,0,0,1,3.047,1.284,5.7,5.7,0,0,1,1.048,3.708Z" transform="translate(-506.246 -309.439)" fill="#fff"/>
      <path id="Path_102" data-name="Path 102" d="M8.329,484.919l4.885-5.645h3.294v15.215H12.722V485l-4.114,4.766H8.035L3.934,485v9.493H.145V479.274H3.433Z" transform="translate(-0.125 -412.349)" fill="#fff"/>
      <path id="Path_103" data-name="Path 103" d="M148.271,479.273l6.756,15.215h-4.073l-1.253-3h-6.814l-1.136,3h-4.014l6.142-15.215Zm.32,9.549-2.469-5.907-2.236,5.907Z" transform="translate(-118.505 -412.349)" fill="#fff"/>
      <path id="Path_104" data-name="Path 104" d="M293.717,491.7v2.785h-11.6V479.273h3.785V491.7Z" transform="translate(-242.726 -412.349)" fill="#fff"/>
      <path id="Path_105" data-name="Path 105" d="M387.165,479.273l6.759,15.215h-4.068l-1.256-3H381.78l-1.13,3h-4.016l6.142-15.215Zm.324,9.549-2.46-5.907-2.242,5.907Z" transform="translate(-324.041 -412.349)" fill="#fff"/>
      <path id="Path_106" data-name="Path 106" d="M497.291,494.488v-7.1l-6-8.115h4.6l3.293,4.788,3.317-4.788h4.581l-6.009,8.12v7.1Z" transform="translate(-422.69 -412.349)" fill="#fff"/>
      <path id="Path_107" data-name="Path 107" d="M625.376,479.044v2.98a12.618,12.618,0,0,0-4.821-1.372,3.252,3.252,0,0,0-1.628.352,1.007,1.007,0,0,0-.6.906,1.111,1.111,0,0,0,.432.832,8.088,8.088,0,0,0,2.124,1.011,21.962,21.962,0,0,1,2.7,1.149,5.387,5.387,0,0,1,1.753,1.5,3.944,3.944,0,0,1,.736,2.448,4.079,4.079,0,0,1-1.608,3.368,6.7,6.7,0,0,1-4.233,1.249A11.283,11.283,0,0,1,614.737,492v-3.269a15.057,15.057,0,0,0,2.706,1.489,6.637,6.637,0,0,0,2.494.465c1.483,0,2.234-.465,2.234-1.4a1.258,1.258,0,0,0-.454-.906,7.073,7.073,0,0,0-2.147-1.027,20.676,20.676,0,0,1-2.7-1.14,5.066,5.066,0,0,1-1.728-1.49,4.032,4.032,0,0,1-.713-2.477,3.793,3.793,0,0,1,1.576-3.172,6.791,6.791,0,0,1,4.223-1.2,12.923,12.923,0,0,1,5.147,1.177" transform="translate(-528.632 -411.138)" fill="#fff"/>
      <rect id="Rectangle_1380" data-name="Rectangle 1380" width="3.791" height="15.215" transform="translate(101.138 66.924)" fill="#fff"/>
      <path id="Path_108" data-name="Path 108" d="M783.383,479.273l6.76,15.215h-4.076l-1.255-3H778l-1.139,3H772.85L779,479.273Zm.327,9.549-2.472-5.907-2.232,5.907Z" transform="translate(-664.931 -412.349)" fill="#fff"/>
      <path id="Path_109" data-name="Path 109" d="M4.861,614.728a6.172,6.172,0,0,1-1.841.311,3.074,3.074,0,0,1-2.243-.745A2.669,2.669,0,0,1,0,612.289a2.847,2.847,0,0,1,3.151-2.881,3.8,3.8,0,0,1,1.53.27l-.262,1a3.057,3.057,0,0,0-1.285-.237,1.8,1.8,0,0,0-.09,3.593,1.666,1.666,0,0,0,.614-.082V612.8H2.807v-.974H4.861Z" transform="translate(0 -524.312)" fill="#fff"/>
      <path id="Path_110" data-name="Path 110" d="M72.49,609.82h1.252v4.468h2.193v1.048H72.49Z" transform="translate(-62.368 -524.667)" fill="#fff"/>
      <path id="Path_111" data-name="Path 111" d="M134.4,611.965a2.63,2.63,0,0,1-2.709,2.905,2.572,2.572,0,0,1-2.594-2.807,2.67,2.67,0,0,1,2.685-2.889,2.571,2.571,0,0,1,2.619,2.791m-3.986.074c0,1.08.507,1.841,1.342,1.841s1.326-.8,1.326-1.874c0-.99-.475-1.842-1.334-1.842-.843,0-1.334.8-1.334,1.874" transform="translate(-111.07 -524.111)" fill="#fff"/>
      <path id="Path_112" data-name="Path 112" d="M203.638,609.641a9.953,9.953,0,0,1,1.612-.115,3.047,3.047,0,0,1,1.629.311,1.2,1.2,0,0,1,.663,1.08,1.247,1.247,0,0,1-.908,1.179v.016a1.38,1.38,0,0,1,1.1,1.359,1.469,1.469,0,0,1-.573,1.17,3.482,3.482,0,0,1-2.169.5,9.7,9.7,0,0,1-1.35-.082Zm1.236,2.112h.409c.655,0,1.007-.27,1.007-.679s-.319-.639-.884-.639a3.39,3.39,0,0,0-.532.033Zm0,2.447a3.909,3.909,0,0,0,.483.016c.565,0,1.064-.213,1.064-.794,0-.556-.5-.777-1.121-.777h-.426Z" transform="translate(-175.203 -524.414)" fill="#fff"/>
      <path id="Path_113" data-name="Path 113" d="M268.319,613.92l-.393,1.416h-1.293l1.686-5.516h1.637l1.711,5.516h-1.342l-.426-1.416Zm1.4-.933-.344-1.171c-.1-.327-.2-.736-.278-1.064h-.016c-.082.327-.164.745-.254,1.064l-.327,1.171Z" transform="translate(-229.401 -524.666)" fill="#fff"/>
      <path id="Path_114" data-name="Path 114" d="M338.654,609.82h1.252v4.468H342.1v1.048h-3.445Z" transform="translate(-291.365 -524.667)" fill="#fff"/>
      <path id="Path_115" data-name="Path 115" d="M440.578,613.5a3.182,3.182,0,0,0,1.383.344c.573,0,.876-.237.876-.6,0-.344-.262-.54-.925-.777-.917-.319-1.514-.827-1.514-1.629,0-.941.786-1.662,2.087-1.662a3.376,3.376,0,0,1,1.408.279l-.278,1.006a2.625,2.625,0,0,0-1.154-.262c-.54,0-.8.246-.8.532,0,.352.311.507,1.023.777.974.36,1.432.867,1.432,1.645,0,.925-.712,1.71-2.226,1.71a3.61,3.61,0,0,1-1.563-.335Z" transform="translate(-378.838 -524.111)" fill="#fff"/>
      <path id="Path_116" data-name="Path 116" d="M507.483,613h-2.03v1.309h2.267v1.023H504.2V609.82h3.4v1.023h-2.153v1.146h2.03Z" transform="translate(-433.796 -524.666)" fill="#fff"/>
      <path id="Path_117" data-name="Path 117" d="M566.2,609.641a10.98,10.98,0,0,1,1.662-.115,2.814,2.814,0,0,1,1.784.434,1.4,1.4,0,0,1,.508,1.154,1.464,1.464,0,0,1-.974,1.359v.025a1.391,1.391,0,0,1,.736,1.031c.172.622.344,1.342.45,1.555h-1.277a6.9,6.9,0,0,1-.385-1.285c-.147-.687-.385-.876-.892-.884h-.376v2.169H566.2Zm1.236,2.374h.491c.622,0,.99-.311.99-.794,0-.508-.344-.761-.917-.769a3.126,3.126,0,0,0-.565.041Z" transform="translate(-487.136 -524.414)" fill="#fff"/>
      <path id="Path_118" data-name="Path 118" d="M629.732,615.336l-1.768-5.516h1.367l.671,2.333c.188.655.36,1.285.491,1.972h.025c.139-.663.311-1.318.5-1.948l.7-2.357h1.326l-1.858,5.516Z" transform="translate(-540.277 -524.666)" fill="#fff"/>
      <rect id="Rectangle_1381" data-name="Rectangle 1381" width="1.252" height="5.516" transform="translate(97.645 85.154)" fill="#fff"/>
      <path id="Path_119" data-name="Path 119" d="M749.175,614.625a3.559,3.559,0,0,1-1.416.237,2.623,2.623,0,0,1-2.889-2.758,2.812,2.812,0,0,1,3.012-2.93,3.249,3.249,0,0,1,1.359.246l-.254.99a2.7,2.7,0,0,0-1.048-.2,1.813,1.813,0,0,0,.008,3.626,3.123,3.123,0,0,0,1.04-.18Z" transform="translate(-640.859 -524.111)" fill="#fff"/>
      <path id="Path_120" data-name="Path 120" d="M815.544,613h-2.03v1.309h2.267v1.023h-3.519V609.82h3.4v1.023h-2.153v1.146h2.03Z" transform="translate(-698.84 -524.666)" fill="#fff"/>
      <path id="Path_121" data-name="Path 121" d="M872.991,613.5a3.182,3.182,0,0,0,1.383.344c.573,0,.876-.237.876-.6,0-.344-.262-.54-.925-.777-.917-.319-1.514-.827-1.514-1.629,0-.941.786-1.662,2.087-1.662a3.377,3.377,0,0,1,1.408.279l-.278,1.006a2.622,2.622,0,0,0-1.154-.262c-.54,0-.8.246-.8.532,0,.352.311.507,1.023.777.974.36,1.432.867,1.432,1.645,0,.925-.712,1.71-2.226,1.71a3.61,3.61,0,0,1-1.563-.335Z" transform="translate(-750.871 -524.111)" fill="#fff"/>
    </g>
  </g>
</svg>
