<svg xmlns="http://www.w3.org/2000/svg" width="230.729" height="80.173" viewBox="0 0 230.729 80.173">
  <g id="Group_41933" data-name="Group 41933" transform="translate(-213.999 -5157.06)">
    <g id="Group_41932" data-name="Group 41932">
      <rect id="Rectangle_14645" data-name="Rectangle 14645" width="222.351" height="1.12" transform="translate(214 5214.399)" fill="#fff"/>
      <g id="Component_6_4" data-name="Component 6 – 4" transform="translate(214.729 5217.233)">
        <text id="Malaysia_s_Central_Admission_System_" data-name="Malaysia’s Central Admission System " fill="#fff" font-size="15" font-family="RobotoCondensed-Regular, Roboto Condensed"><tspan x="0" y="16">Malaysia’s Central Admission System </tspan></text>
      </g>
      <g id="Group_41042" data-name="Group 41042" transform="translate(10689.999 9228)">
        <path id="Union_21" data-name="Union 21" d="M3769.25,4393.362l-4.154-8.159h22.972a5.358,5.358,0,0,0,5.351-5.352v-.378a5.357,5.357,0,0,0-5.351-5.352h-15.262a13.524,13.524,0,0,1-13.507-13.508v-.378a13.524,13.524,0,0,1,13.507-13.511h26.505v8.158h-26.505a5.357,5.357,0,0,0-5.353,5.353v.378a5.358,5.358,0,0,0,5.353,5.352h15.262a13.525,13.525,0,0,1,13.51,13.509v.38a13.526,13.526,0,0,1-13.51,13.509Zm-71.732-.048a23.335,23.335,0,0,1,0-46.67h19.294v8.159h-19.295a15.177,15.177,0,0,0,0,30.353h13.773l-4.164,8.158Zm55.24-.031-14.6-28.613-14.6,28.613h-9.159l23.763-46.559,14.41,28.23,9.356,18.33Zm-107.361,0V4375.56l-9.213-9.213-8.158-8.157v-11.544l8.158,8.159,13.3,13.3,13.3-13.3v11.538l-9.213,9.212v17.729Zm-31.979,0v-17.827l8.159-8.159v25.986Zm-34.751,0v-46.637l8.159,8.159,13.3,13.3,13.3-13.3,8.158-8.159v20.65l-8.159,8.159v-9.113l-13.3,13.3-13.295-13.3v26.941Zm84.1-38.479,8.153-8.159v11.538l-8.159,8.16Z" transform="translate(-14054.668 -8417.584)" fill="#1176cf"/>
        <path id="Union_21-2" data-name="Union 21" d="M3645.4,4393.284v-17.723l-9.213-9.213-8.158-8.157v-11.544l8.158,8.159,13.3,13.3,13.3-13.3v11.537l-9.213,9.212v17.729Zm-31.979,0v-17.826l8.159-8.159v25.985Zm-34.751,0v-46.637l8.159,8.159,13.3,13.3,13.3-13.3,8.158-8.159v20.65l-8.159,8.158v-9.112l-13.3,13.3-13.295-13.3v26.94Zm84.1-38.478,8.153-8.159v11.538l-8.159,8.159Z" transform="translate(-14054.668 -8417.588)" fill="#fff"/>
      </g>
    </g>
  </g>
</svg>
