<svg xmlns="http://www.w3.org/2000/svg" width="234" height="82.349" viewBox="0 0 234 82.349">
  <g id="Group_41044" data-name="Group 41044" transform="translate(10464.28 10143.94)">
    <g id="Group_41043" data-name="Group 41043" transform="translate(0 43)">
      <path id="Union_21" data-name="Union 21" d="M3769.25,4393.362l-4.154-8.159h22.972a5.358,5.358,0,0,0,5.351-5.352v-.378a5.357,5.357,0,0,0-5.351-5.352h-15.262a13.524,13.524,0,0,1-13.507-13.508v-.378a13.524,13.524,0,0,1,13.507-13.511h26.505v8.158h-26.505a5.357,5.357,0,0,0-5.353,5.353v.378a5.358,5.358,0,0,0,5.353,5.352h15.262a13.525,13.525,0,0,1,13.51,13.509v.38a13.526,13.526,0,0,1-13.51,13.509Zm-71.732-.048a23.335,23.335,0,0,1,0-46.67h19.294v8.159h-19.295a15.177,15.177,0,0,0,0,30.353h13.773l-4.164,8.158Zm55.24-.031-14.6-28.613-14.6,28.613h-9.159l23.763-46.559,14.41,28.23,9.356,18.33Zm-107.361,0V4375.56l-9.213-9.213-8.158-8.157v-11.544l8.158,8.159,13.3,13.3,13.3-13.3v11.538l-9.213,9.212v17.729Zm-31.979,0v-17.827l8.159-8.159v25.986Zm-34.751,0v-46.637l8.159,8.159,13.3,13.3,13.3-13.3,8.158-8.159v20.65l-8.159,8.159v-9.113l-13.3,13.3-13.295-13.3v26.941Zm84.1-38.479,8.153-8.159v11.538l-8.159,8.16Z" transform="translate(-14042.948 -14533.584)" fill="#1176cf"/>
      <path id="Union_21-2" data-name="Union 21" d="M3645.4,4393.284v-17.723l-9.213-9.213-8.158-8.157v-11.544l8.158,8.159,13.3,13.3,13.3-13.3v11.537l-9.213,9.212v17.729Zm-31.979,0v-17.826l8.159-8.159v25.985Zm-34.751,0v-46.637l8.159,8.159,13.3,13.3,13.3-13.3,8.158-8.159v20.65l-8.159,8.158v-9.112l-13.3,13.3-13.295-13.3v26.94Zm84.1-38.478,8.153-8.159v11.538l-8.159,8.159Z" transform="translate(-14042.948 -14533.588)" fill="#013687"/>
    </g>
    <rect id="Rectangle_14645" data-name="Rectangle 14645" width="222.911" height="1.039" transform="translate(-10464.28 -10084.22)" fill="#118aa7"/>
    <g id="Component_6_5" data-name="Component 6 – 5" transform="translate(-10464.28 -10081.592)">
      <text id="Malaysia_s_Central_Admission_System_" data-name="Malaysia’s Central Admission System " fill="#484848" font-size="15.3" font-family="RobotoCondensed-Regular, Roboto Condensed"><tspan x="0" y="16">Malaysia’s Central Admission System </tspan></text>
    </g>
  </g>
</svg>
